<svg xmlns="http://www.w3.org/2000/svg" viewBox="0 0 300 220"><style>.g{fill:none;stroke:#111;stroke-width:3;stroke-linecap:round;stroke-linejoin:round}.p{fill:#fff;stroke:#111;stroke-width:3;stroke-linejoin:round;stroke-linecap:round}.h{fill:#111;stroke:#111;stroke-width:3;stroke-linejoin:round;stroke-linecap:round}.a{fill:#9a9a9a;stroke:#111;stroke-width:3;stroke-linejoin:round;stroke-linecap:round}.t{fill:none;stroke:#111;stroke-width:1.8;stroke-linecap:round;stroke-linejoin:round}.w{fill:none;stroke:#fff;stroke-width:2.2;stroke-linecap:round}.m{fill:#d8342c;stroke:#111;stroke-width:3;stroke-linejoin:round}.hijau{fill:#3a9d4a;stroke:#111;stroke-width:3;stroke-linejoin:round}.biru{fill:#2f6fd6;stroke:#111;stroke-width:3;stroke-linejoin:round}.kuning{fill:#f2c230;stroke:#111;stroke-width:3;stroke-linejoin:round}.birutua{fill:#1c3470;stroke:#111;stroke-width:3;stroke-linejoin:round}.n{fill:#fff;stroke:none}text{font-family:'DFKai-SB','BiauKai','Kaiti TC','Noto Serif TC',serif;fill:#111}.d{font-family:'Segoe UI',Roboto,Arial,sans-serif;font-weight:700}</style><rect width="300" height="220" fill="#fff"/><polyline class="g" points="16,200 284,200"/><rect class="a" x="165" y="130" width="90" height="70" rx="0"/><rect class="p" x="192" y="108" width="36" height="22" rx="3"/><rect class="h" x="198" y="112" width="24" height="10" rx="0"/><polyline class="g" points="83.2,120 81.8,200" style="stroke-width:5.168000000000001"/><polyline class="g" points="96.8,120 98.2,200" style="stroke-width:5.168000000000001"/><polygon class="h" points="75,72 105,72 102.6,122 77.4,122"/><polyline class="g" points="75,75 68.2,123" style="stroke-width:4.6240000000000006"/><polyline class="g" points="105,75 125,75 151,65" style="stroke-width:4.6240000000000006"/><circle class="p" cx="90" cy="53.6" r="13.6"/><path class="h" d="M76.1 55 Q75 37.3 90 38.4 Q105 37.3 103.9 55 Q99.5 46.8 87.3 47.5 Q79.1 48.8 76.1 55 Z"/><circle class="h" cx="84.8" cy="52.5" r="1.2"/><circle class="h" cx="95.2" cy="52.5" r="1.2"/><path class="t" d="M85.9 59 Q90 63.1 94.1 59"/><rect class="p" x="122.8" y="44.4" width="54.4" height="35.2" rx="5"/><rect class="h" x="122.8" y="52.4" width="54.4" height="7.2" rx="0"/><rect class="a" x="129.2" y="65.2" width="12.8" height="8.8" rx="2"/></svg>