<svg xmlns="http://www.w3.org/2000/svg" viewBox="0 0 300 220"><style>.g{fill:none;stroke:#111;stroke-width:3;stroke-linecap:round;stroke-linejoin:round}.p{fill:#fff;stroke:#111;stroke-width:3;stroke-linejoin:round;stroke-linecap:round}.h{fill:#111;stroke:#111;stroke-width:3;stroke-linejoin:round;stroke-linecap:round}.a{fill:#9a9a9a;stroke:#111;stroke-width:3;stroke-linejoin:round;stroke-linecap:round}.t{fill:none;stroke:#111;stroke-width:1.8;stroke-linecap:round;stroke-linejoin:round}.w{fill:none;stroke:#fff;stroke-width:2.2;stroke-linecap:round}.m{fill:#d8342c;stroke:#111;stroke-width:3;stroke-linejoin:round}.hijau{fill:#3a9d4a;stroke:#111;stroke-width:3;stroke-linejoin:round}.biru{fill:#2f6fd6;stroke:#111;stroke-width:3;stroke-linejoin:round}.kuning{fill:#f2c230;stroke:#111;stroke-width:3;stroke-linejoin:round}.birutua{fill:#1c3470;stroke:#111;stroke-width:3;stroke-linejoin:round}.n{fill:#fff;stroke:none}text{font-family:'DFKai-SB','BiauKai','Kaiti TC','Noto Serif TC',serif;fill:#111}.d{font-family:'Segoe UI',Roboto,Arial,sans-serif;font-weight:700}</style><rect width="300" height="220" fill="#fff"/><polyline class="g" points="16,200 284,200"/><rect class="h" x="40" y="150" width="220" height="12" rx="0"/><rect class="h" x="50" y="162" width="10" height="38" rx="0"/><rect class="h" x="240" y="162" width="10" height="38" rx="0"/><g transform="rotate(0 190 138)"><rect class="h" x="160" y="133" width="46" height="10" rx="2"/><polygon class="p" points="206,133 220,138 206,143"/><rect class="h" x="168" y="130" width="22" height="3" rx="0"/></g><polyline class="g" points="63.6,125 62.4,200" style="stroke-width:4.845000000000001"/><polyline class="g" points="76.4,125 77.7,200" style="stroke-width:4.845000000000001"/><polygon class="a" points="57.9,80 82.1,80 88.9,143 51.1,143"/><polyline class="g" points="57.9,83 51.5,128" style="stroke-width:4.335000000000001"/><polyline class="g" points="82.1,83 108.1,91 140.1,97" style="stroke-width:4.335000000000001"/><path class="h" d="M56.2 62.8 Q54.7 46.8 70 47.7 Q85.3 46.8 83.8 62.8 L84.7 80 L55.3 80 Z"/><circle class="p" cx="70" cy="62.8" r="12.8"/><path class="h" d="M57.2 62.1 Q58.5 48.7 70 49.4 Q81.5 48.7 82.8 62.1 Q73.8 55.7 57.2 62.1 Z"/><circle class="h" cx="65.2" cy="61.7" r="1.1"/><circle class="h" cx="74.8" cy="61.7" r="1.1"/><path class="t" d="M66.2 67.8 Q70 71.7 73.8 67.8"/><polyline class="g" points="233.6,125 232.3,200" style="stroke-width:4.845000000000001"/><polyline class="g" points="246.4,125 247.7,200" style="stroke-width:4.845000000000001"/><polygon class="h" points="226,80 254,80 251.8,127 228.2,127"/><polyline class="g" points="226,83 219.6,128" style="stroke-width:4.335000000000001"/><polyline class="g" points="254,83 260.4,128" style="stroke-width:4.335000000000001"/><circle class="p" cx="240" cy="62.8" r="12.8"/><path class="h" d="M227 64 Q226 47.5 240 48.5 Q254 47.5 253 64 Q248.9 56.4 237.4 57 Q229.8 58.3 227 64 Z"/><circle class="h" cx="235.2" cy="61.7" r="1.1"/><circle class="h" cx="244.8" cy="61.7" r="1.1"/><path class="t" d="M236.2 67.8 Q240 71.7 243.8 67.8"/></svg>