<svg xmlns="http://www.w3.org/2000/svg" viewBox="0 0 300 220"><style>.g{fill:none;stroke:#111;stroke-width:3;stroke-linecap:round;stroke-linejoin:round}.p{fill:#fff;stroke:#111;stroke-width:3;stroke-linejoin:round;stroke-linecap:round}.h{fill:#111;stroke:#111;stroke-width:3;stroke-linejoin:round;stroke-linecap:round}.a{fill:#9a9a9a;stroke:#111;stroke-width:3;stroke-linejoin:round;stroke-linecap:round}.t{fill:none;stroke:#111;stroke-width:1.8;stroke-linecap:round;stroke-linejoin:round}.w{fill:none;stroke:#fff;stroke-width:2.2;stroke-linecap:round}.m{fill:#d8342c;stroke:#111;stroke-width:3;stroke-linejoin:round}.hijau{fill:#3a9d4a;stroke:#111;stroke-width:3;stroke-linejoin:round}.biru{fill:#2f6fd6;stroke:#111;stroke-width:3;stroke-linejoin:round}.kuning{fill:#f2c230;stroke:#111;stroke-width:3;stroke-linejoin:round}.birutua{fill:#1c3470;stroke:#111;stroke-width:3;stroke-linejoin:round}.n{fill:#fff;stroke:none}text{font-family:'DFKai-SB','BiauKai','Kaiti TC','Noto Serif TC',serif;fill:#111}.d{font-family:'Segoe UI',Roboto,Arial,sans-serif;font-weight:700}</style><rect width="300" height="220" fill="#fff"/><rect class="p" x="16" y="16" width="268" height="188" rx="0"/><rect class="h" x="130" y="105" width="12" height="95" rx="0"/><rect class="h" x="258" y="140" width="12" height="60" rx="0"/><rect class="p" x="142" y="148" width="116" height="22" rx="0"/><rect class="h" x="142" y="170" width="116" height="10" rx="0"/><ellipse class="p" cx="166" cy="140" rx="20" ry="9"/><path class="a" d="M62.3 168.5 L52.5 173.4 L55.3 179.7 L59.5 177.6 L59.5 196.5 L80.5 196.5 L80.5 177.6 L84.7 179.7 L87.5 173.4 L77.7 168.5 Q70 173.4 62.3 168.5 Z"/><path class="p" d="M223.4 175 L215 179.2 L217.4 184.6 L221 182.8 L221 199 L239 199 L239 182.8 L242.6 184.6 L245 179.2 L236.6 175 Q230 179.2 223.4 175 Z"/><polygon class="h" points="120,196 160,190 170,198"/><rect class="h" x="175" y="188" width="30" height="10" rx="2"/><polyline class="w" points="180,188 180,198"/><g transform="rotate(30 40 190)"><rect class="p" x="29" y="182" width="22" height="16" rx="0"/><polyline class="t" points="36,194 44,194"/><polyline class="t" points="36,204 44,204"/><polyline class="t" points="36,214 44,214"/><polyline class="t" points="36,224 44,224"/></g><g transform="rotate(-20 262 150)"><rect class="p" x="252" y="143" width="20" height="14" rx="0"/><polyline class="t" points="259,155 265,155"/><polyline class="t" points="259,165 265,165"/><polyline class="t" points="259,175 265,175"/><polyline class="t" points="259,185 265,185"/></g><path class="g" d="M150 150 q10 -10 20 0 M60 140 q8 -8 16 0"/><rect class="a" x="105" y="186" width="30" height="10" rx="2"/><polyline class="t" points="110,186 110,196"/><rect class="h" x="137" y="172" width="26" height="8" rx="2"/><polyline class="w" points="142,172 142,180"/></svg>