<svg xmlns="http://www.w3.org/2000/svg" viewBox="0 0 300 220"><style>.g{fill:none;stroke:#111;stroke-width:3;stroke-linecap:round;stroke-linejoin:round}.p{fill:#fff;stroke:#111;stroke-width:3;stroke-linejoin:round;stroke-linecap:round}.h{fill:#111;stroke:#111;stroke-width:3;stroke-linejoin:round;stroke-linecap:round}.a{fill:#9a9a9a;stroke:#111;stroke-width:3;stroke-linejoin:round;stroke-linecap:round}.t{fill:none;stroke:#111;stroke-width:1.8;stroke-linecap:round;stroke-linejoin:round}.w{fill:none;stroke:#fff;stroke-width:2.2;stroke-linecap:round}.m{fill:#d8342c;stroke:#111;stroke-width:3;stroke-linejoin:round}.hijau{fill:#3a9d4a;stroke:#111;stroke-width:3;stroke-linejoin:round}.biru{fill:#2f6fd6;stroke:#111;stroke-width:3;stroke-linejoin:round}.kuning{fill:#f2c230;stroke:#111;stroke-width:3;stroke-linejoin:round}.birutua{fill:#1c3470;stroke:#111;stroke-width:3;stroke-linejoin:round}.n{fill:#fff;stroke:none}text{font-family:'DFKai-SB','BiauKai','Kaiti TC','Noto Serif TC',serif;fill:#111}.d{font-family:'Segoe UI',Roboto,Arial,sans-serif;font-weight:700}</style><rect width="300" height="220" fill="#fff"/><rect class="p" x="16" y="16" width="268" height="188" rx="0"/><ellipse class="h" cx="50" cy="40" rx="13.5" ry="6"/><ellipse class="p" cx="45.5" cy="29.5" rx="10.5" ry="5.2"/><ellipse class="p" cx="56" cy="29.5" rx="10.5" ry="5.2"/><polyline class="g" points="62,40 77,43" style="stroke-width:1.8"/><polyline class="g" points="41,44.5 36.5,58" style="stroke-width:1.5"/><polyline class="g" points="48.5,44.5 44,58" style="stroke-width:1.5"/><polyline class="g" points="56,44.5 51.5,58" style="stroke-width:1.5"/><ellipse class="h" cx="120" cy="34" rx="13.5" ry="6"/><ellipse class="p" cx="115.5" cy="23.5" rx="10.5" ry="5.2"/><ellipse class="p" cx="126" cy="23.5" rx="10.5" ry="5.2"/><polyline class="g" points="132,34 147,37" style="stroke-width:1.8"/><polyline class="g" points="111,38.5 106.5,52" style="stroke-width:1.5"/><polyline class="g" points="118.5,38.5 114,52" style="stroke-width:1.5"/><polyline class="g" points="126,38.5 121.5,52" style="stroke-width:1.5"/><ellipse class="h" cx="200" cy="50" rx="13.5" ry="6"/><ellipse class="p" cx="195.5" cy="39.5" rx="10.5" ry="5.2"/><ellipse class="p" cx="206" cy="39.5" rx="10.5" ry="5.2"/><polyline class="g" points="212,50 227,53" style="stroke-width:1.8"/><polyline class="g" points="191,54.5 186.5,68" style="stroke-width:1.5"/><polyline class="g" points="198.5,54.5 194,68" style="stroke-width:1.5"/><polyline class="g" points="206,54.5 201.5,68" style="stroke-width:1.5"/><ellipse class="h" cx="255" cy="38" rx="13.5" ry="6"/><ellipse class="p" cx="250.5" cy="27.5" rx="10.5" ry="5.2"/><ellipse class="p" cx="261" cy="27.5" rx="10.5" ry="5.2"/><polyline class="g" points="267,38 282,41" style="stroke-width:1.8"/><polyline class="g" points="246,42.5 241.5,56" style="stroke-width:1.5"/><polyline class="g" points="253.5,42.5 249,56" style="stroke-width:1.5"/><polyline class="g" points="261,42.5 256.5,56" style="stroke-width:1.5"/><ellipse class="h" cx="80" cy="90" rx="13.5" ry="6"/><ellipse class="p" cx="75.5" cy="79.5" rx="10.5" ry="5.2"/><ellipse class="p" cx="86" cy="79.5" rx="10.5" ry="5.2"/><polyline class="g" points="92,90 107,93" style="stroke-width:1.8"/><polyline class="g" points="71,94.5 66.5,108" style="stroke-width:1.5"/><polyline class="g" points="78.5,94.5 74,108" style="stroke-width:1.5"/><polyline class="g" points="86,94.5 81.5,108" style="stroke-width:1.5"/><ellipse class="h" cx="165" cy="100" rx="13.5" ry="6"/><ellipse class="p" cx="160.5" cy="89.5" rx="10.5" ry="5.2"/><ellipse class="p" cx="171" cy="89.5" rx="10.5" ry="5.2"/><polyline class="g" points="177,100 192,103" style="stroke-width:1.8"/><polyline class="g" points="156,104.5 151.5,118" style="stroke-width:1.5"/><polyline class="g" points="163.5,104.5 159,118" style="stroke-width:1.5"/><polyline class="g" points="171,104.5 166.5,118" style="stroke-width:1.5"/><ellipse class="h" cx="235" cy="110" rx="13.5" ry="6"/><ellipse class="p" cx="230.5" cy="99.5" rx="10.5" ry="5.2"/><ellipse class="p" cx="241" cy="99.5" rx="10.5" ry="5.2"/><polyline class="g" points="247,110 262,113" style="stroke-width:1.8"/><polyline class="g" points="226,114.5 221.5,128" style="stroke-width:1.5"/><polyline class="g" points="233.5,114.5 229,128" style="stroke-width:1.5"/><polyline class="g" points="241,114.5 236.5,128" style="stroke-width:1.5"/><ellipse class="h" cx="45" cy="150" rx="13.5" ry="6"/><ellipse class="p" cx="40.5" cy="139.5" rx="10.5" ry="5.2"/><ellipse class="p" cx="51" cy="139.5" rx="10.5" ry="5.2"/><polyline class="g" points="57,150 72,153" style="stroke-width:1.8"/><polyline class="g" points="36,154.5 31.5,168" style="stroke-width:1.5"/><polyline class="g" points="43.5,154.5 39,168" style="stroke-width:1.5"/><polyline class="g" points="51,154.5 46.5,168" style="stroke-width:1.5"/><ellipse class="h" cx="115" cy="160" rx="13.5" ry="6"/><ellipse class="p" cx="110.5" cy="149.5" rx="10.5" ry="5.2"/><ellipse class="p" cx="121" cy="149.5" rx="10.5" ry="5.2"/><polyline class="g" points="127,160 142,163" style="stroke-width:1.8"/><polyline class="g" points="106,164.5 101.5,178" style="stroke-width:1.5"/><polyline class="g" points="113.5,164.5 109,178" style="stroke-width:1.5"/><polyline class="g" points="121,164.5 116.5,178" style="stroke-width:1.5"/><ellipse class="h" cx="190" cy="170" rx="13.5" ry="6"/><ellipse class="p" cx="185.5" cy="159.5" rx="10.5" ry="5.2"/><ellipse class="p" cx="196" cy="159.5" rx="10.5" ry="5.2"/><polyline class="g" points="202,170 217,173" style="stroke-width:1.8"/><polyline class="g" points="181,174.5 176.5,188" style="stroke-width:1.5"/><polyline class="g" points="188.5,174.5 184,188" style="stroke-width:1.5"/><polyline class="g" points="196,174.5 191.5,188" style="stroke-width:1.5"/><ellipse class="h" cx="255" cy="175" rx="13.5" ry="6"/><ellipse class="p" cx="250.5" cy="164.5" rx="10.5" ry="5.2"/><ellipse class="p" cx="261" cy="164.5" rx="10.5" ry="5.2"/><polyline class="g" points="267,175 282,178" style="stroke-width:1.8"/><polyline class="g" points="246,179.5 241.5,193" style="stroke-width:1.5"/><polyline class="g" points="253.5,179.5 249,193" style="stroke-width:1.5"/><polyline class="g" points="261,179.5 256.5,193" style="stroke-width:1.5"/></svg>