<svg xmlns="http://www.w3.org/2000/svg" viewBox="0 0 300 220"><style>.g{fill:none;stroke:#111;stroke-width:3;stroke-linecap:round;stroke-linejoin:round}.p{fill:#fff;stroke:#111;stroke-width:3;stroke-linejoin:round;stroke-linecap:round}.h{fill:#111;stroke:#111;stroke-width:3;stroke-linejoin:round;stroke-linecap:round}.a{fill:#9a9a9a;stroke:#111;stroke-width:3;stroke-linejoin:round;stroke-linecap:round}.t{fill:none;stroke:#111;stroke-width:1.8;stroke-linecap:round;stroke-linejoin:round}.w{fill:none;stroke:#fff;stroke-width:2.2;stroke-linecap:round}.m{fill:#d8342c;stroke:#111;stroke-width:3;stroke-linejoin:round}.hijau{fill:#3a9d4a;stroke:#111;stroke-width:3;stroke-linejoin:round}.biru{fill:#2f6fd6;stroke:#111;stroke-width:3;stroke-linejoin:round}.kuning{fill:#f2c230;stroke:#111;stroke-width:3;stroke-linejoin:round}.birutua{fill:#1c3470;stroke:#111;stroke-width:3;stroke-linejoin:round}.n{fill:#fff;stroke:none}text{font-family:'DFKai-SB','BiauKai','Kaiti TC','Noto Serif TC',serif;fill:#111}.d{font-family:'Segoe UI',Roboto,Arial,sans-serif;font-weight:700}</style><rect width="300" height="220" fill="#fff"/><polyline class="g" points="16,200 284,200"/><polyline class="g" points="82.8,115 81.3,200" style="stroke-width:5.4910000000000005"/><polyline class="g" points="97.2,115 98.7,200" style="stroke-width:5.4910000000000005"/><polygon class="a" points="74.1,64 105.9,64 103.4,117 76.6,117"/><polyline class="g" points="74.1,67 66.9,118" style="stroke-width:4.913000000000001"/><polyline class="g" points="105.9,67 125.9,67 151.9,67" style="stroke-width:4.913000000000001"/><circle class="p" cx="90" cy="44.5" r="14.5"/><path class="h" d="M75.3 45.9 Q74.1 27.1 90 28.3 Q105.9 27.1 104.7 45.9 Q100.1 37.2 87.1 37.9 Q78.4 39.4 75.3 45.9 Z"/><circle class="h" cx="84.5" cy="43.3" r="1.3"/><circle class="h" cx="95.5" cy="43.3" r="1.3"/><path class="t" d="M85.7 50.2 Q90 54.6 94.3 50.2"/><rect class="h" x="72.7" y="26.4" width="34.7" height="7.9" rx="3"/><rect class="h" x="69.8" y="33.6" width="40.5" height="2.9" rx="0"/><polygon class="n" points="90,27.1 90.8,28.9 92.7,29.1 91.2,30.4 91.7,32.3 90,31.3 88.3,32.3 88.8,30.4 87.3,29.1 89.2,28.9"/><polyline class="g" points="193.6,125 192.3,200" style="stroke-width:4.845000000000001"/><polyline class="g" points="206.4,125 207.7,200" style="stroke-width:4.845000000000001"/><polygon class="h" points="186,80 214,80 211.8,127 188.2,127"/><polyline class="g" points="186,83 166,73 156,43" style="stroke-width:4.335000000000001"/><polyline class="g" points="214,83 234,73 244,43" style="stroke-width:4.335000000000001"/><circle class="p" cx="200" cy="62.8" r="12.8"/><path class="h" d="M187 64 Q186 47.5 200 48.5 Q214 47.5 213 64 Q208.9 56.4 197.4 57 Q189.8 58.3 187 64 Z"/><circle class="h" cx="195.2" cy="61.7" r="1.1"/><circle class="h" cx="204.8" cy="61.7" r="1.1"/><ellipse class="t" cx="200" cy="69.1" rx="1.7" ry="2"/><rect class="h" x="187.2" y="58.3" width="25.5" height="6.4" rx="3"/><circle class="n" cx="195.2" cy="61.5" r="1.5"/><circle class="n" cx="204.8" cy="61.5" r="1.5"/></svg>