<svg xmlns="http://www.w3.org/2000/svg" viewBox="0 0 300 220"><style>.g{fill:none;stroke:#111;stroke-width:3;stroke-linecap:round;stroke-linejoin:round}.p{fill:#fff;stroke:#111;stroke-width:3;stroke-linejoin:round;stroke-linecap:round}.h{fill:#111;stroke:#111;stroke-width:3;stroke-linejoin:round;stroke-linecap:round}.a{fill:#9a9a9a;stroke:#111;stroke-width:3;stroke-linejoin:round;stroke-linecap:round}.t{fill:none;stroke:#111;stroke-width:1.8;stroke-linecap:round;stroke-linejoin:round}.w{fill:none;stroke:#fff;stroke-width:2.2;stroke-linecap:round}.m{fill:#d8342c;stroke:#111;stroke-width:3;stroke-linejoin:round}.hijau{fill:#3a9d4a;stroke:#111;stroke-width:3;stroke-linejoin:round}.biru{fill:#2f6fd6;stroke:#111;stroke-width:3;stroke-linejoin:round}.kuning{fill:#f2c230;stroke:#111;stroke-width:3;stroke-linejoin:round}.birutua{fill:#1c3470;stroke:#111;stroke-width:3;stroke-linejoin:round}.n{fill:#fff;stroke:none}text{font-family:'DFKai-SB','BiauKai','Kaiti TC','Noto Serif TC',serif;fill:#111}.d{font-family:'Segoe UI',Roboto,Arial,sans-serif;font-weight:700}</style><rect width="300" height="220" fill="#fff"/><path class="h" d="M97.2 56.8 q-19.2 -2.4 -14.4 -21.6 q4.8 -16.8 26.4 -12 q7.2 -26.4 36 -21.6 q21.6 -19.2 45.6 -2.4 q28.8 -4.8 28.8 21.6 q19.2 4.8 9.6 24 Z"/><path class="w" d="M150 50 m-40 0 a40 16 0 1 1 80 0 a30 12 0 1 1 -60 0 a18 8 0 1 1 36 0"/><polyline class="g" points="30,70 24,86" style="stroke-width:2.4"/><polyline class="g" points="20,96 14,112" style="stroke-width:2.4"/><polyline class="g" points="50,82 44,98" style="stroke-width:2.4"/><polyline class="g" points="40,116 34,132" style="stroke-width:2.4"/><polyline class="g" points="70,94 64,110" style="stroke-width:2.4"/><polyline class="g" points="60,120 54,136" style="stroke-width:2.4"/><polyline class="g" points="90,70 84,86" style="stroke-width:2.4"/><polyline class="g" points="80,104 74,120" style="stroke-width:2.4"/><polyline class="g" points="110,82 104,98" style="stroke-width:2.4"/><polyline class="g" points="100,108 94,124" style="stroke-width:2.4"/><polyline class="g" points="130,94 124,110" style="stroke-width:2.4"/><polyline class="g" points="120,128 114,144" style="stroke-width:2.4"/><polyline class="g" points="150,70 144,86" style="stroke-width:2.4"/><polyline class="g" points="140,96 134,112" style="stroke-width:2.4"/><polyline class="g" points="170,82 164,98" style="stroke-width:2.4"/><polyline class="g" points="160,116 154,132" style="stroke-width:2.4"/><polyline class="g" points="190,94 184,110" style="stroke-width:2.4"/><polyline class="g" points="180,120 174,136" style="stroke-width:2.4"/><polyline class="g" points="210,70 204,86" style="stroke-width:2.4"/><polyline class="g" points="200,104 194,120" style="stroke-width:2.4"/><polyline class="g" points="230,82 224,98" style="stroke-width:2.4"/><polyline class="g" points="220,108 214,124" style="stroke-width:2.4"/><polyline class="g" points="250,94 244,110" style="stroke-width:2.4"/><polyline class="g" points="240,128 234,144" style="stroke-width:2.4"/><polyline class="g" points="270,70 264,86" style="stroke-width:2.4"/><polyline class="g" points="260,96 254,112" style="stroke-width:2.4"/><path class="g" d="M20 120 L76 120 q14.4 0 11.2 -11.2 q-3.2 -8 -11.2 -3.2 M28 132.8 L92 132.8 q12.8 0 9.6 9.6 q-3.2 6.4 -9.6 3.2 M15.2 145.6 L63.2 145.6"/><rect class="h" x="245" y="150" width="8" height="50" rx="0"/><path class="p" d="M249 150 Q262 110 286 104 Q270 128 260 150 Z"/><rect class="h" x="30" y="150" width="8" height="50" rx="0"/><path class="p" d="M34 150 Q48 112 70 106 Q56 130 44 150 Z"/><polyline class="t" points="150,20 150,200"/><polygon class="h" points="160,130 225,80 290,130"/><rect class="p" x="170" y="130" width="110" height="70" rx="0"/><rect class="p" x="238.5" y="144" width="28" height="56" rx="0"/><rect class="t" x="246.5" y="154" width="12" height="12" rx="0"/><rect class="t" x="246.5" y="176" width="12" height="14" rx="0"/><circle class="h" cx="256.5" cy="172" r="3.5"/><rect class="p" x="180.5" y="148" width="34" height="28" rx="0"/><polyline class="g" points="197.5,148 197.5,176"/><polyline class="g" points="180.5,162 214.5,162"/><polyline class="g" points="202.7,168.5 202.2,196" style="stroke-width:1.7765000000000002"/><polyline class="g" points="207.3,168.5 207.8,196" style="stroke-width:1.7765000000000002"/><polygon class="a" points="199.9,152 210.1,152 209.3,170.5 200.7,170.5"/><polyline class="g" points="199.9,155 197.5,171.5" style="stroke-width:1.5895000000000004"/><polyline class="g" points="210.1,155 212.5,171.5" style="stroke-width:1.5895000000000004"/><circle class="p" cx="205" cy="145.7" r="4.7"/><path class="h" d="M200.2 146.1 Q199.9 140.1 205 140.4 Q210.1 140.1 209.8 146.1 Q208.3 143.3 204.1 143.6 Q201.3 144 200.2 146.1 Z"/><circle class="h" cx="203.2" cy="145.3" r="0.4"/><circle class="h" cx="206.8" cy="145.3" r="0.4"/><path class="t" d="M203.6 147.5 Q205 148.9 206.4 147.5"/><polyline class="g" points="237.9,171 237.4,196" style="stroke-width:1.615"/><polyline class="g" points="242.1,171 242.6,196" style="stroke-width:1.615"/><polygon class="h" points="236,156 244,156 246.3,177 233.7,177"/><polyline class="g" points="236,159 233.8,174" style="stroke-width:1.445"/><polyline class="g" points="244,159 246.2,174" style="stroke-width:1.445"/><path class="h" d="M235.4 150.2 Q234.9 144.9 240 145.2 Q245.1 144.9 244.6 150.2 L244.9 156 L235.1 156 Z"/><circle class="p" cx="240" cy="150.2" r="4.2"/><path class="h" d="M235.8 150 Q236.2 145.6 240 145.8 Q243.8 145.6 244.2 150 Q241.3 147.9 235.8 150 Z"/><circle class="h" cx="238.4" cy="149.9" r="0.4"/><circle class="h" cx="241.6" cy="149.9" r="0.4"/><path class="t" d="M238.7 151.9 Q240 153.2 241.3 151.9"/><polyline class="g" points="16,200 284,200"/></svg>