<svg xmlns="http://www.w3.org/2000/svg" viewBox="0 0 300 220"><style>.g{fill:none;stroke:#111;stroke-width:3;stroke-linecap:round;stroke-linejoin:round}.p{fill:#fff;stroke:#111;stroke-width:3;stroke-linejoin:round;stroke-linecap:round}.h{fill:#111;stroke:#111;stroke-width:3;stroke-linejoin:round;stroke-linecap:round}.a{fill:#9a9a9a;stroke:#111;stroke-width:3;stroke-linejoin:round;stroke-linecap:round}.t{fill:none;stroke:#111;stroke-width:1.8;stroke-linecap:round;stroke-linejoin:round}.w{fill:none;stroke:#fff;stroke-width:2.2;stroke-linecap:round}.m{fill:#d8342c;stroke:#111;stroke-width:3;stroke-linejoin:round}.hijau{fill:#3a9d4a;stroke:#111;stroke-width:3;stroke-linejoin:round}.biru{fill:#2f6fd6;stroke:#111;stroke-width:3;stroke-linejoin:round}.kuning{fill:#f2c230;stroke:#111;stroke-width:3;stroke-linejoin:round}.birutua{fill:#1c3470;stroke:#111;stroke-width:3;stroke-linejoin:round}.n{fill:#fff;stroke:none}text{font-family:'DFKai-SB','BiauKai','Kaiti TC','Noto Serif TC',serif;fill:#111}.d{font-family:'Segoe UI',Roboto,Arial,sans-serif;font-weight:700}</style><rect width="300" height="220" fill="#fff"/><polyline class="g" points="16,200 284,200"/><path class="g" d="M24 52 L101 52 q19.8 0 15.4 -15.4 q-4.4 -11 -15.4 -4.4 M35 69.6 L123 69.6 q17.6 0 13.2 13.2 q-4.4 8.8 -13.2 4.4 M17.4 87.2 L83.4 87.2"/><path class="g" d="M30 118 L86 118 q14.4 0 11.2 -11.2 q-3.2 -8 -11.2 -3.2 M38 130.8 L102 130.8 q12.8 0 9.6 9.6 q-3.2 6.4 -9.6 3.2 M25.2 143.6 L73.2 143.6"/><path class="a" d="M111 40 Q120 30 129 40 Q120 50 111 40 Z"/><polyline class="t" points="111,40 129,40"/><path class="a" d="M88.8 150 Q96 142 103.2 150 Q96 158 88.8 150 Z"/><polyline class="t" points="88.8,150 103.2,150"/><polyline class="g" points="183.2,120 181.8,200" style="stroke-width:5.168000000000001"/><polyline class="g" points="196.8,120 198.2,200" style="stroke-width:5.168000000000001"/><polygon class="a" points="175,72 205,72 202.6,122 177.4,122"/><polyline class="g" points="175,75 183,97 201,89" style="stroke-width:4.6240000000000006"/><polyline class="g" points="205,75 197,97 179,89" style="stroke-width:4.6240000000000006"/><circle class="p" cx="190" cy="53.6" r="13.6"/><path class="h" d="M176.1 55 Q175 37.3 190 38.4 Q205 37.3 203.9 55 Q199.5 46.8 187.3 47.5 Q179.1 48.8 176.1 55 Z"/><circle class="h" cx="184.8" cy="52.5" r="1.2"/><circle class="h" cx="195.2" cy="52.5" r="1.2"/><polyline class="g" points="182.1,49.8 187,47.9" style="stroke-width:1.3600000000000003"/><polyline class="g" points="197.9,49.8 193,47.9" style="stroke-width:1.3600000000000003"/><path class="t" d="M185.9 59.7 l2 -1.1 l2 1.1 l2 -1.1 l2 1.1"/></svg>