<svg xmlns="http://www.w3.org/2000/svg" viewBox="0 0 300 220"><style>.g{fill:none;stroke:#111;stroke-width:3;stroke-linecap:round;stroke-linejoin:round}.p{fill:#fff;stroke:#111;stroke-width:3;stroke-linejoin:round;stroke-linecap:round}.h{fill:#111;stroke:#111;stroke-width:3;stroke-linejoin:round;stroke-linecap:round}.a{fill:#9a9a9a;stroke:#111;stroke-width:3;stroke-linejoin:round;stroke-linecap:round}.t{fill:none;stroke:#111;stroke-width:1.8;stroke-linecap:round;stroke-linejoin:round}.w{fill:none;stroke:#fff;stroke-width:2.2;stroke-linecap:round}.m{fill:#d8342c;stroke:#111;stroke-width:3;stroke-linejoin:round}.hijau{fill:#3a9d4a;stroke:#111;stroke-width:3;stroke-linejoin:round}.biru{fill:#2f6fd6;stroke:#111;stroke-width:3;stroke-linejoin:round}.kuning{fill:#f2c230;stroke:#111;stroke-width:3;stroke-linejoin:round}.birutua{fill:#1c3470;stroke:#111;stroke-width:3;stroke-linejoin:round}.n{fill:#fff;stroke:none}text{font-family:'DFKai-SB','BiauKai','Kaiti TC','Noto Serif TC',serif;fill:#111}.d{font-family:'Segoe UI',Roboto,Arial,sans-serif;font-weight:700}</style><rect width="300" height="220" fill="#fff"/><polyline class="g" points="16,200 284,200"/><path class="a" d="M88.4 49.6 q-22.4 -2.8 -16.8 -25.2 q5.6 -19.6 30.8 -14 q8.4 -30.8 42 -25.2 q25.2 -22.4 53.2 -2.8 q33.6 -5.6 33.6 25.2 q22.4 5.6 11.2 28 Z"/><polyline class="g" points="30.8,54 24.8,70" style="stroke-width:2.4"/><polyline class="g" points="20.8,80 14.8,96" style="stroke-width:2.4"/><polyline class="g" points="52.5,66 46.5,82" style="stroke-width:2.4"/><polyline class="g" points="42.5,100 36.5,116" style="stroke-width:2.4"/><polyline class="g" points="74.2,78 68.2,94" style="stroke-width:2.4"/><polyline class="g" points="64.2,104 58.2,120" style="stroke-width:2.4"/><polyline class="g" points="95.8,54 89.8,70" style="stroke-width:2.4"/><polyline class="g" points="85.8,88 79.8,104" style="stroke-width:2.4"/><polyline class="g" points="117.5,66 111.5,82" style="stroke-width:2.4"/><polyline class="g" points="107.5,92 101.5,108" style="stroke-width:2.4"/><polyline class="g" points="139.2,78 133.2,94" style="stroke-width:2.4"/><polyline class="g" points="129.2,112 123.2,128" style="stroke-width:2.4"/><polyline class="g" points="160.8,54 154.8,70" style="stroke-width:2.4"/><polyline class="g" points="150.8,80 144.8,96" style="stroke-width:2.4"/><polyline class="g" points="182.5,66 176.5,82" style="stroke-width:2.4"/><polyline class="g" points="172.5,100 166.5,116" style="stroke-width:2.4"/><polyline class="g" points="204.2,78 198.2,94" style="stroke-width:2.4"/><polyline class="g" points="194.2,104 188.2,120" style="stroke-width:2.4"/><polyline class="g" points="225.8,54 219.8,70" style="stroke-width:2.4"/><polyline class="g" points="215.8,88 209.8,104" style="stroke-width:2.4"/><polyline class="g" points="247.5,66 241.5,82" style="stroke-width:2.4"/><polyline class="g" points="237.5,92 231.5,108" style="stroke-width:2.4"/><polyline class="g" points="269.2,78 263.2,94" style="stroke-width:2.4"/><polyline class="g" points="259.2,112 253.2,128" style="stroke-width:2.4"/><rect class="h" x="76.5" y="165" width="7" height="35" rx="0"/><path class="p" d="M80 116 c-21 0 -29.4 21 -21 31.5 c-9.8 14 5.6 22.4 21 17.5 c15.4 4.9 30.8 -3.5 21 -17.5 c8.4 -10.5 0 -31.5 -21 -31.5 Z"/><path class="t" d="M70.2 135.6 q8 -8 16 0 M82.8 146.8 q8 -8 16 0"/><rect class="h" x="227" y="170" width="6" height="30" rx="0"/><path class="p" d="M230 128 c-18 0 -25.2 18 -18 27 c-8.4 12 4.8 19.2 18 15 c13.2 4.2 26.4 -3 18 -15 c7.2 -9 0 -27 -18 -27 Z"/><path class="t" d="M221.6 144.8 q8 -8 16 0 M232.4 154.4 q8 -8 16 0"/><polyline class="g" points="143.6,125 132,200" style="stroke-width:4.845000000000001"/><polyline class="g" points="156.4,125 166,200" style="stroke-width:4.845000000000001"/><polygon class="p" points="136,80 164,80 161.8,127 138.2,127"/><polyline class="g" points="136,83 122,109 110,123" style="stroke-width:4.335000000000001"/><polyline class="g" points="164,83 162,109 152,127" style="stroke-width:4.335000000000001"/><circle class="p" cx="150" cy="62.8" r="12.8"/><path class="h" d="M137 64 Q136 47.5 150 48.5 Q164 47.5 163 64 Q158.9 56.4 147.4 57 Q139.8 58.3 137 64 Z"/><circle class="h" cx="145.2" cy="61.7" r="1.1"/><circle class="h" cx="154.8" cy="61.7" r="1.1"/><path class="t" d="M146.2 70 Q150 66.6 153.8 70"/></svg>