<svg xmlns="http://www.w3.org/2000/svg" viewBox="0 0 300 220"><style>.g{fill:none;stroke:#111;stroke-width:3;stroke-linecap:round;stroke-linejoin:round}.p{fill:#fff;stroke:#111;stroke-width:3;stroke-linejoin:round;stroke-linecap:round}.h{fill:#111;stroke:#111;stroke-width:3;stroke-linejoin:round;stroke-linecap:round}.a{fill:#9a9a9a;stroke:#111;stroke-width:3;stroke-linejoin:round;stroke-linecap:round}.t{fill:none;stroke:#111;stroke-width:1.8;stroke-linecap:round;stroke-linejoin:round}.w{fill:none;stroke:#fff;stroke-width:2.2;stroke-linecap:round}.m{fill:#d8342c;stroke:#111;stroke-width:3;stroke-linejoin:round}.hijau{fill:#3a9d4a;stroke:#111;stroke-width:3;stroke-linejoin:round}.biru{fill:#2f6fd6;stroke:#111;stroke-width:3;stroke-linejoin:round}.kuning{fill:#f2c230;stroke:#111;stroke-width:3;stroke-linejoin:round}.birutua{fill:#1c3470;stroke:#111;stroke-width:3;stroke-linejoin:round}.n{fill:#fff;stroke:none}text{font-family:'DFKai-SB','BiauKai','Kaiti TC','Noto Serif TC',serif;fill:#111}.d{font-family:'Segoe UI',Roboto,Arial,sans-serif;font-weight:700}</style><rect width="300" height="220" fill="#fff"/><polyline class="g" points="16,200 284,200"/><rect class="p" x="25" y="80" width="170" height="120" rx="0"/><rect class="h" x="17" y="70" width="186" height="12" rx="0"/><path class="h" d="M17 82 q15.5 20 31 0"/><path class="p" d="M48 82 q15.5 20 31 0"/><path class="h" d="M79 82 q15.5 20 31 0"/><path class="p" d="M110 82 q15.5 20 31 0"/><path class="h" d="M141 82 q15.5 20 31 0"/><path class="p" d="M172 82 q15.5 20 31 0"/><rect class="p" x="39" y="120" width="56" height="44" rx="0"/><rect class="p" x="124" y="120" width="44" height="80" rx="0"/><circle class="h" cx="160" cy="160" r="3"/><polyline class="g" points="195.3,145 194.4,200" style="stroke-width:3.5530000000000004"/><polyline class="g" points="204.7,145 205.6,200" style="stroke-width:3.5530000000000004"/><polygon class="h" points="189.7,112 210.3,112 208.6,147 191.4,147"/><polyline class="g" points="189.7,115 185,148" style="stroke-width:3.1790000000000007"/><polyline class="g" points="210.3,115 215,148" style="stroke-width:3.1790000000000007"/><circle class="p" cx="200" cy="99.3" r="9.4"/><path class="h" d="M190.5 100.3 Q189.7 88.1 200 88.9 Q210.3 88.1 209.5 100.3 Q206.5 94.7 198.1 95.1 Q192.5 96.1 190.5 100.3 Z"/><circle class="h" cx="196.4" cy="98.6" r="0.8"/><circle class="h" cx="203.6" cy="98.6" r="0.8"/><path class="t" d="M197.2 103.1 Q200 105.9 202.8 103.1"/><polyline class="g" points="225.6,148 224.7,200" style="stroke-width:3.3592"/><polyline class="g" points="234.4,148 235.3,200" style="stroke-width:3.3592"/><polygon class="a" points="221.6,116.8 238.4,116.8 243.1,160.5 216.9,160.5"/><polyline class="g" points="221.6,119.8 217.2,151" style="stroke-width:3.0056000000000003"/><polyline class="g" points="238.4,119.8 242.8,151" style="stroke-width:3.0056000000000003"/><path class="h" d="M220.5 104.8 Q219.4 93.8 230 94.4 Q240.6 93.8 239.5 104.8 L240.2 116.8 L219.8 116.8 Z"/><circle class="p" cx="230" cy="104.8" r="8.8"/><path class="h" d="M221.2 104.4 Q222 95.1 230 95.6 Q238 95.1 238.8 104.4 Q232.7 100 221.2 104.4 Z"/><circle class="h" cx="226.6" cy="104.1" r="0.8"/><circle class="h" cx="233.4" cy="104.1" r="0.8"/><path class="t" d="M227.3 108.4 Q230 111 232.7 108.4"/><polyline class="g" points="255,161.5 254,200" style="stroke-width:3.8304"/><polyline class="g" points="265,161.5 266,200" style="stroke-width:3.8304"/><polygon class="p" points="248.9,139.7 271.1,139.7 269.3,163.5 250.7,163.5"/><polyline class="g" points="248.9,142.7 243.9,165.4" style="stroke-width:3.4272000000000005"/><polyline class="g" points="271.1,142.7 276.1,165.4" style="stroke-width:3.4272000000000005"/><circle class="p" cx="260" cy="126.1" r="10.1"/><path class="h" d="M249.7 127.1 Q248.9 114 260 114.8 Q271.1 114 270.3 127.1 Q267.1 121 258 121.5 Q251.9 122.6 249.7 127.1 Z"/><circle class="h" cx="256.2" cy="125.3" r="0.9"/><circle class="h" cx="263.8" cy="125.3" r="0.9"/><path class="t" d="M257 130.1 Q260 133.1 263 130.1"/><polyline class="g" points="285.2,144 284.3,200" style="stroke-width:3.6176000000000004"/><polyline class="g" points="294.8,144 295.7,200" style="stroke-width:3.6176000000000004"/><polygon class="h" points="279.5,110.4 300.5,110.4 298.8,146 281.2,146"/><polyline class="g" points="279.5,113.4 274.8,147" style="stroke-width:3.2368000000000006"/><polyline class="g" points="300.5,113.4 305.2,147" style="stroke-width:3.2368000000000006"/><circle class="p" cx="290" cy="97.5" r="9.5"/><path class="h" d="M280.3 98.5 Q279.5 86.1 290 86.9 Q300.5 86.1 299.7 98.5 Q296.7 92.8 288.1 93.2 Q282.4 94.2 280.3 98.5 Z"/><circle class="h" cx="286.4" cy="96.8" r="0.9"/><circle class="h" cx="293.6" cy="96.8" r="0.9"/><path class="t" d="M287.1 101.3 Q290 104.2 292.9 101.3"/></svg>