<svg xmlns="http://www.w3.org/2000/svg" viewBox="0 0 300 220"><style>.g{fill:none;stroke:#111;stroke-width:3;stroke-linecap:round;stroke-linejoin:round}.p{fill:#fff;stroke:#111;stroke-width:3;stroke-linejoin:round;stroke-linecap:round}.h{fill:#111;stroke:#111;stroke-width:3;stroke-linejoin:round;stroke-linecap:round}.a{fill:#9a9a9a;stroke:#111;stroke-width:3;stroke-linejoin:round;stroke-linecap:round}.t{fill:none;stroke:#111;stroke-width:1.8;stroke-linecap:round;stroke-linejoin:round}.w{fill:none;stroke:#fff;stroke-width:2.2;stroke-linecap:round}.m{fill:#d8342c;stroke:#111;stroke-width:3;stroke-linejoin:round}.hijau{fill:#3a9d4a;stroke:#111;stroke-width:3;stroke-linejoin:round}.biru{fill:#2f6fd6;stroke:#111;stroke-width:3;stroke-linejoin:round}.kuning{fill:#f2c230;stroke:#111;stroke-width:3;stroke-linejoin:round}.birutua{fill:#1c3470;stroke:#111;stroke-width:3;stroke-linejoin:round}.n{fill:#fff;stroke:none}text{font-family:'DFKai-SB','BiauKai','Kaiti TC','Noto Serif TC',serif;fill:#111}.d{font-family:'Segoe UI',Roboto,Arial,sans-serif;font-weight:700}</style><rect width="300" height="220" fill="#fff"/><polyline class="g" points="16,200 284,200"/><polyline class="g" points="44.9,116 43.4,200" style="stroke-width:5.4264"/><polyline class="g" points="59.1,116 60.6,200" style="stroke-width:5.4264"/><polygon class="h" points="36.3,65.6 67.7,65.6 65.2,118 38.8,118"/><polyline class="g" points="36.3,68.6 29.2,119" style="stroke-width:4.855200000000001"/><polyline class="g" points="67.7,68.6 74.8,119" style="stroke-width:4.855200000000001"/><circle class="p" cx="52" cy="46.3" r="14.3"/><path class="h" d="M37.4 47.7 Q36.3 29.1 52 30.3 Q67.7 29.1 66.6 47.7 Q62 39.1 49.1 39.9 Q40.6 41.3 37.4 47.7 Z"/><circle class="h" cx="46.6" cy="45.1" r="1.3"/><circle class="h" cx="57.4" cy="45.1" r="1.3"/><path class="t" d="M47.7 52 Q52 56.3 56.3 52"/><polyline class="g" points="115.4,122 114,200" style="stroke-width:5.038800000000001"/><polyline class="g" points="128.6,122 130,200" style="stroke-width:5.038800000000001"/><polygon class="a" points="109.4,75.2 134.6,75.2 141.7,140.7 102.3,140.7"/><polyline class="g" points="109.4,78.2 102.8,125" style="stroke-width:4.508400000000001"/><polyline class="g" points="134.6,78.2 141.2,125" style="stroke-width:4.508400000000001"/><path class="h" d="M107.7 57.3 Q106.1 40.7 122 41.6 Q137.9 40.7 136.3 57.3 L137.2 75.2 L106.8 75.2 Z"/><circle class="p" cx="122" cy="57.3" r="13.3"/><path class="h" d="M108.7 56.6 Q110.1 42.7 122 43.3 Q133.9 42.7 135.3 56.6 Q126 50 108.7 56.6 Z"/><circle class="h" cx="117" cy="56.2" r="1.2"/><circle class="h" cx="127" cy="56.2" r="1.2"/><path class="t" d="M118 62.6 Q122 66.5 126 62.6"/><polyline class="g" points="184.2,156 183.1,200" style="stroke-width:4.3776"/><polyline class="g" points="195.8,156 196.9,200" style="stroke-width:4.3776"/><polygon class="p" points="177.3,131.1 202.7,131.1 200.6,158 179.4,158"/><polyline class="g" points="177.3,134.1 171.6,160" style="stroke-width:3.9168000000000003"/><polyline class="g" points="202.7,134.1 208.4,160" style="stroke-width:3.9168000000000003"/><circle class="p" cx="190" cy="115.5" r="11.5"/><path class="h" d="M178.2 116.7 Q177.3 101.7 190 102.6 Q202.7 101.7 201.8 116.7 Q198.1 109.8 187.7 110.3 Q180.8 111.5 178.2 116.7 Z"/><circle class="h" cx="185.6" cy="114.6" r="1"/><circle class="h" cx="194.4" cy="114.6" r="1"/><path class="t" d="M186.5 120.1 Q190 123.6 193.5 120.1"/><polyline class="g" points="244.5,157.9 243.4,200" style="stroke-width:4.1952"/><polyline class="g" points="255.5,157.9 256.6,200" style="stroke-width:4.1952"/><polygon class="h" points="239.5,133.9 260.5,133.9 266.4,168.9 233.6,168.9"/><polyline class="g" points="239.5,136.9 234,161.8" style="stroke-width:3.7536"/><polyline class="g" points="260.5,136.9 266,161.8" style="stroke-width:3.7536"/><path class="h" d="M238.1 119 Q236.8 105.2 250 106 Q263.2 105.2 261.9 119 L262.7 133.9 L237.3 133.9 Z"/><circle class="p" cx="250" cy="119" r="11"/><path class="h" d="M239 118.5 Q240.1 106.9 250 107.4 Q259.9 106.9 261 118.5 Q253.3 113 239 118.5 Z"/><circle class="h" cx="245.8" cy="118.2" r="1"/><circle class="h" cx="254.2" cy="118.2" r="1"/><path class="t" d="M246.7 123.5 Q250 126.8 253.3 123.5"/></svg>