<svg xmlns="http://www.w3.org/2000/svg" viewBox="0 0 300 220"><style>.g{fill:none;stroke:#111;stroke-width:3;stroke-linecap:round;stroke-linejoin:round}.p{fill:#fff;stroke:#111;stroke-width:3;stroke-linejoin:round;stroke-linecap:round}.h{fill:#111;stroke:#111;stroke-width:3;stroke-linejoin:round;stroke-linecap:round}.a{fill:#9a9a9a;stroke:#111;stroke-width:3;stroke-linejoin:round;stroke-linecap:round}.t{fill:none;stroke:#111;stroke-width:1.8;stroke-linecap:round;stroke-linejoin:round}.w{fill:none;stroke:#fff;stroke-width:2.2;stroke-linecap:round}.m{fill:#d8342c;stroke:#111;stroke-width:3;stroke-linejoin:round}.hijau{fill:#3a9d4a;stroke:#111;stroke-width:3;stroke-linejoin:round}.biru{fill:#2f6fd6;stroke:#111;stroke-width:3;stroke-linejoin:round}.kuning{fill:#f2c230;stroke:#111;stroke-width:3;stroke-linejoin:round}.birutua{fill:#1c3470;stroke:#111;stroke-width:3;stroke-linejoin:round}.n{fill:#fff;stroke:none}text{font-family:'DFKai-SB','BiauKai','Kaiti TC','Noto Serif TC',serif;fill:#111}.d{font-family:'Segoe UI',Roboto,Arial,sans-serif;font-weight:700}</style><rect width="300" height="220" fill="#fff"/><polyline class="g" points="16,200 284,200"/><rect class="a" x="130" y="130" width="120" height="26" rx="4"/><circle class="h" cx="160" cy="143" r="5"/><circle class="h" cx="220" cy="143" r="5"/><rect class="p" x="136" y="156" width="108" height="44" rx="0"/><path class="h" d="M177.2 128 q-5.6 -9.6 1.6 -17.6 q1.6 8 5.6 6.4 q3.2 6.4 -7.2 11.2 Z"/><path class="h" d="M190 128 q-5.6 -9.6 1.6 -17.6 q1.6 8 5.6 6.4 q3.2 6.4 -7.2 11.2 Z"/><path class="h" d="M202.8 128 q-5.6 -9.6 1.6 -17.6 q1.6 8 5.6 6.4 q3.2 6.4 -7.2 11.2 Z"/><path class="h" d="M140 112 Q190 152 240 112 Z"/><polyline class="g" points="238,114 280,102" style="stroke-width:6.0"/><path class="a" d="M162.1 114 Q172 103 181.9 114 Q172 125 162.1 114 Z"/><polyline class="t" points="162.1,114 181.9,114"/><path class="a" d="M185 110 Q194 100 203 110 Q194 120 185 110 Z"/><polyline class="t" points="185,110 203,110"/><path class="a" d="M203.9 115 Q212 106 220.1 115 Q212 124 203.9 115 Z"/><polyline class="t" points="203.9,115 220.1,115"/><polyline class="g" points="78.2,120 76.8,200" style="stroke-width:5.168000000000001"/><polyline class="g" points="91.8,120 93.2,200" style="stroke-width:5.168000000000001"/><polygon class="a" points="70,72 100,72 97.6,122 72.4,122"/><polyline class="g" points="70,75 63.2,123" style="stroke-width:4.6240000000000006"/><polyline class="g" points="100,75 126,93 162,85" style="stroke-width:4.6240000000000006"/><circle class="p" cx="85" cy="53.6" r="13.6"/><path class="h" d="M71.1 55 Q70 37.3 85 38.4 Q100 37.3 98.9 55 Q94.5 46.8 82.3 47.5 Q74.1 48.8 71.1 55 Z"/><circle class="h" cx="79.8" cy="52.5" r="1.2"/><circle class="h" cx="90.2" cy="52.5" r="1.2"/><path class="t" d="M80.9 59 Q85 63.1 89.1 59"/></svg>