<svg xmlns="http://www.w3.org/2000/svg" viewBox="0 0 300 220"><style>.g{fill:none;stroke:#111;stroke-width:3;stroke-linecap:round;stroke-linejoin:round}.p{fill:#fff;stroke:#111;stroke-width:3;stroke-linejoin:round;stroke-linecap:round}.h{fill:#111;stroke:#111;stroke-width:3;stroke-linejoin:round;stroke-linecap:round}.a{fill:#9a9a9a;stroke:#111;stroke-width:3;stroke-linejoin:round;stroke-linecap:round}.t{fill:none;stroke:#111;stroke-width:1.8;stroke-linecap:round;stroke-linejoin:round}.w{fill:none;stroke:#fff;stroke-width:2.2;stroke-linecap:round}.m{fill:#d8342c;stroke:#111;stroke-width:3;stroke-linejoin:round}.hijau{fill:#3a9d4a;stroke:#111;stroke-width:3;stroke-linejoin:round}.biru{fill:#2f6fd6;stroke:#111;stroke-width:3;stroke-linejoin:round}.kuning{fill:#f2c230;stroke:#111;stroke-width:3;stroke-linejoin:round}.birutua{fill:#1c3470;stroke:#111;stroke-width:3;stroke-linejoin:round}.n{fill:#fff;stroke:none}text{font-family:'DFKai-SB','BiauKai','Kaiti TC','Noto Serif TC',serif;fill:#111}.d{font-family:'Segoe UI',Roboto,Arial,sans-serif;font-weight:700}</style><rect width="300" height="220" fill="#fff"/><polyline class="g" points="16,200 284,200"/><rect class="h" x="45.8" y="157.5" width="8.5" height="42.5" rx="0"/><path class="p" d="M50 98 c-25.5 0 -35.7 25.5 -25.5 38.2 c-11.9 17 6.8 27.2 25.5 21.2 c18.7 6 37.4 -4.2 25.5 -21.2 c10.2 -12.8 0 -38.2 -25.5 -38.2 Z"/><path class="t" d="M38.1 121.8 q8 -8 16 0 M53.4 135.4 q8 -8 16 0"/><rect class="h" x="251.5" y="165" width="7" height="35" rx="0"/><path class="p" d="M255 116 c-21 0 -29.4 21 -21 31.5 c-9.8 14 5.6 22.4 21 17.5 c15.4 4.9 30.8 -3.5 21 -17.5 c8.4 -10.5 0 -31.5 -21 -31.5 Z"/><path class="t" d="M245.2 135.6 q8 -8 16 0 M257.8 146.8 q8 -8 16 0"/><polyline class="g" points="210,176 210,200" style="stroke-width:2.4"/><path class="h" d="M210 190.4 q8 -6.4 11.2 -1.6 q-4.8 6.4 -11.2 1.6 Z"/><ellipse class="p" cx="210" cy="170.4" rx="4.4" ry="4.4"/><ellipse class="p" cx="215.3" cy="174.3" rx="4.4" ry="4.4"/><ellipse class="p" cx="213.3" cy="180.5" rx="4.4" ry="4.4"/><ellipse class="p" cx="206.7" cy="180.5" rx="4.4" ry="4.4"/><ellipse class="p" cx="204.7" cy="174.3" rx="4.4" ry="4.4"/><circle class="h" cx="210" cy="176" r="3.2"/><polyline class="g" points="143.2,120 116,192" style="stroke-width:5.168000000000001"/><polyline class="g" points="156.8,120 178,200" style="stroke-width:5.168000000000001"/><polygon class="a" points="135,72 165,72 162.6,122 137.4,122"/><polyline class="g" points="135,75 121,93 101,79" style="stroke-width:4.6240000000000006"/><polyline class="g" points="165,75 161,101 143,113" style="stroke-width:4.6240000000000006"/><circle class="p" cx="150" cy="53.6" r="13.6"/><path class="h" d="M136.1 55 Q135 37.3 150 38.4 Q165 37.3 163.9 55 Q159.5 46.8 147.3 47.5 Q139.1 48.8 136.1 55 Z"/><circle class="h" cx="144.8" cy="52.5" r="1.2"/><circle class="h" cx="155.2" cy="52.5" r="1.2"/><path class="t" d="M145.9 59 Q150 63.1 154.1 59"/></svg>